<?xml version="1.0" encoding="UTF-8" standalone="no"?>
<svg id="svg2" xmlns:rdf="http://www.w3.org/1999/02/22-rdf-syntax-ns#" xmlns="http://www.w3.org/2000/svg" xml:space="preserve" height="354.44" width="903.34" version="1.1" xmlns:cc="http://creativecommons.org/ns#" xmlns:dc="http://purl.org/dc/elements/1.1/"><metadata id="metadata8"><rdf:RDF><cc:Work rdf:about=""><dc:format>image/svg+xml</dc:format><dc:type rdf:resource="http://purl.org/dc/dcmitype/StillImage"/><dc:title/></cc:Work></rdf:RDF></metadata><g id="g10" transform="matrix(1.25 0 0 -1.25 274.25 628.91)"><g id="g12" transform="matrix(0 .1 -.1 0 503.29 219.41)"><path id="path14" d="m2805.1 1859.9-471.24 471.24v61h-1v1430.5l472 472v160.26h-160.26l-311.74-311.76v3051.8h-1825.5v-3053.5l-313.5 313.5h-160.25v-160.26l473.75-473.74v-1487.5l-473.75-473.76v-160.24h160.25l313.5 313.5v-1980.8h1826.5v1293.3h-1066.5v306.74h1066.5v226.76h-1066.5v306.5h911.74l465.76-465.76h160.24v160.26zm-697.74-761v-306.76h-1066.8v-226.75h1066.8v-306.5h-1373.5v1660.7h0.25v320.26l458.76 458.74h452.74l306.5-306.5h-911.5v-1293.2h1066.8zm-1 5869.2v-3051.7l-457.76-457.76h-458.24l-456.26 456.26v3053.2h1372.3zm0-3372.2v-1037.5l-307.26 307.24v423l307.26 307.26zm-1067.3-306.5v-424l-305-305v1034l305-305"/><path id="path16" d="m2805.1 1859.9-471.24 471.24v61h-1v1430.5l472 472v160.26h-160.26l-311.74-311.76v3051.8h-1825.5v-3053.5l-313.5 313.5h-160.25v-160.26l473.75-473.74v-1487.5l-473.75-473.76v-160.24h160.25l313.5 313.5v-1980.8h1826.5v1293.3h-1066.5v306.74h1066.5v226.76h-1066.5v306.5h911.74l465.76-465.76h160.24v160.26zm-697.74-761v-306.76h-1066.8v-226.75h1066.8v-306.5h-1373.5v1660.7h0.25v320.26l458.76 458.74h452.74l306.5-306.5h-911.5v-1293.2h1066.8zm-1 5869.2v-3051.7l-457.76-457.76h-458.24l-456.26 456.26v3053.2h1372.3zm0-3372.2v-1037.5l-307.26 307.24v423l307.26 307.26zm-1067.3-306.5v-424l-305-305v1034l305-305z" stroke="#f00" stroke-linecap="round" stroke-miterlimit="10" stroke-width="64" fill="none"/><path id="path18" d="m1799.1 6658.6h-760v-28.74l504.76-504.5h-504.76v-226.76h760v760"/><path id="path20" d="m1799.1 6658.6h-760v-28.74l504.76-504.5h-504.76v-226.76h760v760z" stroke="#f00" stroke-linecap="round" stroke-miterlimit="10" stroke-width="64" fill="none"/><path id="path22" d="m1799 5592h-226.75v-533.25h-438.5v533.25h-226.76v-559.25l200.76-200.75h691.25v760"/><path id="path24" d="m1799 5592h-226.75v-533.25h-438.5v533.25h-226.76v-559.25l200.76-200.75h691.25v760z" stroke="#f00" stroke-linecap="round" stroke-miterlimit="10" stroke-width="64" fill="none"/><path id="path26" d="m1799.1 4525.4h-760v-28.76l504.76-504.5h-504.76v-226.74h760v760"/><path id="path28" d="m1799.1 4525.4h-760v-28.76l504.76-504.5h-504.76v-226.74h760v760z" stroke="#f00" stroke-linecap="round" stroke-miterlimit="10" stroke-width="64" fill="none"/></g></g></svg>
